<svg width="512" height="512" viewBox="0 0 512 512" fill="none" xmlns="http://www.w3.org/2000/svg">
  <defs>
    <linearGradient id="bg" x1="64" y1="32" x2="448" y2="480" gradientUnits="userSpaceOnUse">
      <stop offset="0" stop-color="#EF4444"/>
      <stop offset="1" stop-color="#F97316"/>
    </linearGradient>
    <linearGradient id="accent" x1="360" y1="80" x2="480" y2="200" gradientUnits="userSpaceOnUse">
      <stop offset="0" stop-color="#FDE68A"/>
      <stop offset="1" stop-color="#FCD34D"/>
    </linearGradient>
  </defs>
  <rect x="32" y="32" width="448" height="448" rx="96" fill="url(#bg)"/>
  <path d="M144 184c0-17.7 14.3-32 32-32h80c26.5 0 48 21.5 48 48v160c-15-9.4-32.9-16-48-16h-80c-17.7 0-32-14.3-32-32V184Z" fill="#F8FAFC" fill-opacity="0.95"/>
  <path d="M368 184c0-17.7-14.3-32-32-32h-80c-26.5 0-48 21.5-48 48v160c15-9.4 32.9-16 48-16h80c17.7 0 32-14.3 32-32V184Z" fill="#F8FAFC" fill-opacity="0.9"/>
  <path d="M396 96l14 34 34 14-34 14-14 34-14-34-34-14 34-14 14-34Z" fill="url(#accent)"/>
</svg>
